<?xml version="1.0" encoding="UTF-8" standalone="no"?>
<!DOCTYPE svg PUBLIC "-//W3C//DTD SVG 1.1//EN" "http://www.w3.org/Graphics/SVG/1.1/DTD/svg11.dtd">
<svg width="100%" height="100%" viewBox="0 0 1212 1086" version="1.1" xmlns="http://www.w3.org/2000/svg" xmlns:xlink="http://www.w3.org/1999/xlink" xml:space="preserve" xmlns:serif="http://www.serif.com/" style="fill-rule:evenodd;clip-rule:evenodd;stroke-linejoin:round;stroke-miterlimit:2;">
    <g transform="matrix(0.131194,87.0745,87.0745,-0.131194,578.329,1.11916)">
        <path d="M-0.018,-0.356L0.522,-0.356L0.525,0.173L-0.014,0.173L-0.018,-0.356Z" style="fill:url(#_Linear1);"/>
    </g>
    <g transform="matrix(0.591327,80.333,80.333,-0.591327,394.963,356.085)">
        <path d="M-2.043,1.498L-1.043,1.498L-1.039,2.478L-2.039,2.491L-2.043,1.498Z" style="fill:url(#_Linear2);"/>
    </g>
    <g transform="matrix(-0.14086,89.3994,89.3994,0.14086,440.087,56.1361)">
        <path d="M-0.048,-0.437L0.662,-0.437L0.659,0.29L-0.053,0.287L-0.048,-0.437Z" style="fill:url(#_Linear3);"/>
    </g>
    <g transform="matrix(560.233,0,0,-224.42,651.309,974.794)">
        <path d="M1,0.502L0.734,0.504C0.701,0.333 0.661,0.228 0.596,0.174L0.243,0.167C0.188,0.151 0.135,0.093 0.086,-0.005C0.005,-0.232 -0.002,-0.386 0,-0.494L0.652,-0.496C0.709,-0.5 0.842,-0.271 0.872,-0.179C0.872,-0.178 0.873,-0.176 0.873,-0.175C0.9,-0.11 0.923,-0.025 0.948,0.089C0.976,0.216 0.995,0.368 1,0.502Z" style="fill:url(#_Linear4);"/>
    </g>
    <g transform="matrix(1209.76,0,0,-829.179,1.02725,670.402)">
        <path d="M0.102,0.499C0.05,0.48 0.028,0.446 0.012,0.408C0.003,0.391 0.001,0.359 0,0.324L0.212,0.323C0.241,0.317 0.27,0.3 0.298,0.269C0.328,0.236 0.35,0.205 0.364,0.175C0.395,0.094 0.402,0.016 0.393,-0.061C0.385,-0.139 0.356,-0.199 0.318,-0.251C0.285,-0.286 0.252,-0.306 0.217,-0.32C0.208,-0.32 0.178,-0.321 0.169,-0.322C0.148,-0.322 0.148,-0.322 0.125,-0.323C0.092,-0.333 0.057,-0.371 0.047,-0.385C0.024,-0.42 0.016,-0.459 0.017,-0.5L0.22,-0.499C0.295,-0.491 0.352,-0.431 0.398,-0.379C0.399,-0.378 0.4,-0.377 0.401,-0.376C0.46,-0.298 0.501,-0.2 0.515,-0.071C0.518,-0.043 0.518,0.001 0.516,0.046L0.522,0.04C0.541,0.003 0.561,-0.019 0.582,-0.033C0.621,-0.067 0.706,-0.076 0.813,-0.073C0.846,-0.081 0.868,-0.115 0.881,-0.17L1,-0.169C0.998,-0.104 0.986,-0.044 0.96,0.007C0.934,0.05 0.901,0.087 0.836,0.103L0.666,0.103C0.628,0.124 0.609,0.161 0.608,0.209C0.612,0.264 0.645,0.309 0.687,0.319L0.878,0.32C0.923,0.334 0.961,0.37 0.98,0.443L0.98,0.496L0.691,0.496C0.629,0.489 0.578,0.461 0.538,0.404C0.505,0.353 0.487,0.305 0.487,0.23C0.488,0.22 0.485,0.216 0.481,0.215C0.461,0.277 0.433,0.332 0.398,0.38C0.354,0.437 0.303,0.475 0.245,0.494C0.237,0.497 0.225,0.499 0.208,0.5L0.102,0.499Z" style="fill:url(#_Linear5);"/>
    </g>
    <g transform="matrix(351.766,3.18903,3.18903,-351.766,14.9643,790.626)">
        <path d="M-0.042,0.17L0.373,0.17L0.381,-0.236C0.281,-0.24 0.182,-0.215 0.088,-0.112C-0.002,-0.003 -0.043,0.102 -0.042,0.17Z" style="fill:url(#_Linear6);"/>
    </g>
    <g transform="matrix(-385.967,-3.75216,-3.75216,385.967,128.263,649.853)">
        <path d="M-0.05,0.217L0.328,0.217L0.336,-0.153C0.244,-0.157 0.154,-0.134 0.068,-0.04C-0.014,0.059 -0.051,0.155 -0.05,0.217Z" style="fill:url(#_Linear7);"/>
    </g>
    <defs>
        <linearGradient id="_Linear1" x1="0" y1="0" x2="1" y2="0" gradientUnits="userSpaceOnUse" gradientTransform="matrix(-0.999999,0.00150669,0.00150669,0.999999,0.507557,-0.000382366)"><stop offset="0" style="stop-color:rgb(255,170,0);stop-opacity:1"/><stop offset="1" style="stop-color:rgb(255,7,0);stop-opacity:1"/></linearGradient>
        <linearGradient id="_Linear2" x1="0" y1="0" x2="1" y2="0" gradientUnits="userSpaceOnUse" gradientTransform="matrix(-0.588454,0.808531,0.808531,0.588454,-4.06311,2.06814)"><stop offset="0" style="stop-color:rgb(255,170,0);stop-opacity:1"/><stop offset="1" style="stop-color:rgb(255,9,0);stop-opacity:1"/></linearGradient>
        <linearGradient id="_Linear3" x1="0" y1="0" x2="1" y2="0" gradientUnits="userSpaceOnUse" gradientTransform="matrix(-0.692361,0.721551,0.721551,0.692361,0.570569,-0.243267)"><stop offset="0" style="stop-color:rgb(255,169,0);stop-opacity:1"/><stop offset="1" style="stop-color:rgb(255,7,0);stop-opacity:1"/></linearGradient>
        <linearGradient id="_Linear4" x1="0" y1="0" x2="1" y2="0" gradientUnits="userSpaceOnUse" gradientTransform="matrix(1,0,0,-1,0,0.0038618)"><stop offset="0" style="stop-color:rgb(255,171,0);stop-opacity:1"/><stop offset="1" style="stop-color:rgb(255,4,0);stop-opacity:1"/></linearGradient>
        <linearGradient id="_Linear5" x1="0" y1="0" x2="1" y2="0" gradientUnits="userSpaceOnUse" gradientTransform="matrix(1,0,0,-1,0,1.11022e-16)"><stop offset="0" style="stop-color:rgb(255,170,0);stop-opacity:1"/><stop offset="0.53" style="stop-color:rgb(255,132,0);stop-opacity:1"/><stop offset="1" style="stop-color:rgb(255,5,0);stop-opacity:1"/></linearGradient>
        <linearGradient id="_Linear6" x1="0" y1="0" x2="1" y2="0" gradientUnits="userSpaceOnUse" gradientTransform="matrix(0.0509185,-0.998703,-0.998703,-0.0509185,0.132115,0.139023)"><stop offset="0" style="stop-color:rgb(255,170,0);stop-opacity:1"/><stop offset="1" style="stop-color:rgb(255,11,0);stop-opacity:1"/></linearGradient>
        <linearGradient id="_Linear7" x1="0" y1="0" x2="1" y2="0" gradientUnits="userSpaceOnUse" gradientTransform="matrix(-0.0182603,-0.999833,-0.999833,0.0182603,0.177921,0.174701)"><stop offset="0" style="stop-color:rgb(255,170,0);stop-opacity:1"/><stop offset="1" style="stop-color:rgb(255,10,0);stop-opacity:1"/></linearGradient>
    </defs>
</svg>
